<svg width="45" height="45" viewBox="0 0 45 45" fill="none" xmlns="http://www.w3.org/2000/svg">
<g clip-path="url(#clip0)">
<path d="M44.2003 8.51039C43.6172 7.82115 42.8007 7.40016 41.901 7.32501L10.2115 4.67899C9.31171 4.60384 8.43685 4.8836 7.74753 5.46657C7.06102 6.04726 6.64064 6.85963 6.56312 7.75497L5.92556 13.7364H3.37982C1.5162 13.7364 0 15.2526 0 17.1163V36.9533C0 38.8169 1.5162 40.3331 3.37982 40.3331H35.1797C37.0434 40.3331 38.5596 38.8169 38.5596 36.9533V33.7353L39.688 33.8296C39.7832 33.8375 39.8778 33.8414 39.9717 33.8414C41.7091 33.8414 43.1902 32.5047 43.3374 30.7427L44.988 10.9745C45.0631 10.0747 44.7833 9.19971 44.2003 8.51039ZM3.37982 15.4942H35.1797C36.074 15.4942 36.8018 16.2219 36.8018 17.1163V18.9238H1.75781V17.1163C1.75781 16.2219 2.48545 15.4942 3.37982 15.4942ZM1.75781 20.6816H36.8018V24.3281H1.75781V20.6816ZM35.1797 38.5753H3.37982C2.48545 38.5753 1.75781 37.8476 1.75781 36.9533V26.0859H36.8018V36.9533C36.8018 37.8476 36.074 38.5753 35.1797 38.5753ZM43.2363 10.8281L41.5856 30.5963C41.5112 31.4876 40.7254 32.1525 39.8342 32.0778L38.5596 31.9714V17.1163C38.5596 15.2526 37.0434 13.7364 35.1797 13.7364H7.69339L8.31205 7.93216C8.31275 7.92548 8.31337 7.91889 8.31389 7.91212C8.38834 7.02082 9.17372 6.35602 10.0653 6.43073L41.7548 9.07675C42.1866 9.11279 42.5785 9.31485 42.8583 9.64567C43.138 9.97649 43.2723 10.3963 43.2363 10.8281Z" fill="black"/>
<path d="M33.1236 28.699H24.6648C24.1794 28.699 23.7859 29.0925 23.7859 29.5779V35.0964C23.7859 35.5819 24.1794 35.9753 24.6648 35.9753H33.1236C33.609 35.9753 34.0025 35.5819 34.0025 35.0964V29.5779C34.0025 29.0925 33.609 28.699 33.1236 28.699ZM32.2447 34.2175H25.5437V30.4568H32.2447V34.2175Z" fill="black"/>
</g>
<defs>
<clipPath id="clip0">
<rect width="45" height="45" fill="white"/>
</clipPath>
</defs>
</svg>
