<svg width="45" height="45" viewBox="0 0 45 45" fill="none" xmlns="http://www.w3.org/2000/svg">
<path d="M32.3667 18.8V16.3333C32.3667 16.0062 32.2367 15.6925 32.0054 15.4612C31.7741 15.2299 31.4604 15.1 31.1333 15.1V12.6333C31.1333 10.3436 30.2238 8.14771 28.6047 6.52864C26.9856 4.90958 24.7897 4 22.5 4C20.2103 4 18.0144 4.90958 16.3953 6.52864C14.7762 8.14771 13.8667 10.3436 13.8667 12.6333V15.1C13.5396 15.1 13.2259 15.2299 12.9946 15.4612C12.7633 15.6925 12.6333 16.0062 12.6333 16.3333V18.8C12.6333 19.1271 12.7633 19.4408 12.9946 19.6721C13.2259 19.9034 13.5396 20.0333 13.8667 20.0333C13.8701 21.664 14.3352 23.2604 15.2083 24.6377C16.0814 26.015 17.3267 27.1168 18.8 27.8157V31.1333L8.93333 34.8333C8.93333 34.8333 4 36.0667 4 38.5333V41H21.2667" stroke="black" stroke-width="2" stroke-linejoin="round"/>
<path d="M32.3667 40.9999C37.1348 40.9999 41.0001 37.1347 41.0001 32.3666C41.0001 27.5986 37.1348 23.7333 32.3667 23.7333C27.5987 23.7333 23.7334 27.5986 23.7334 32.3666C23.7334 37.1347 27.5987 40.9999 32.3667 40.9999Z" stroke="black" stroke-width="2" stroke-linejoin="round"/>
<path d="M32.3667 27.4333V37.3" stroke="black" stroke-width="2" stroke-linejoin="round"/>
<path d="M37.2998 32.3667H27.4331" stroke="black" stroke-width="2" stroke-linejoin="round"/>
</svg>
