<svg width="45" height="45" viewBox="0 0 45 45" fill="none" xmlns="http://www.w3.org/2000/svg">
<path d="M15.9105 16.6385H11.6753C12.4081 15.5982 12.596 14.9047 12.4854 13.7279H13.7289C14.1604 13.7279 14.5102 13.3781 14.5102 12.9467C14.5102 12.5153 14.1604 12.1654 13.7289 12.1654H12.1005C11.8266 11.7481 11.3603 10.8932 11.3633 10.1939C11.3617 9.74932 11.556 9.42299 11.9571 9.19643C12.5714 8.84963 13.5618 8.84307 14.1196 9.18237C14.5639 9.45245 14.8989 9.82862 14.9941 10.1641C15.1118 10.5791 15.5436 10.8201 15.959 10.7025C16.374 10.5847 16.615 10.1528 16.4973 9.73761C16.2929 9.01698 15.7222 8.32799 14.9314 7.84721C13.8816 7.20885 12.3076 7.20416 11.1889 7.8358C10.2902 8.3433 9.79721 9.18268 9.8008 10.1933C9.79776 10.9046 10.0417 11.6083 10.3085 12.1653H9.65869C9.22721 12.1653 8.87744 12.5152 8.87744 12.9466C8.87744 13.378 9.22721 13.7279 9.65869 13.7279H10.9152L10.9174 13.747C11.0184 14.6493 10.9646 14.9846 10.2394 15.9572L9.49112 16.9492C9.31268 17.1857 9.28338 17.5029 9.41557 17.768C9.54768 18.0333 9.81854 18.2008 10.1148 18.2008H15.9106C16.3421 18.2008 16.6918 17.851 16.6918 17.4196C16.6918 16.9882 16.342 16.6385 15.9105 16.6385Z" fill="black"/>
<path d="M12.7843 2C6.83775 2 2 6.83775 2 12.7842C2 18.7306 6.83775 23.5684 12.7843 23.5684C18.7308 23.5684 23.5685 18.7306 23.5685 12.7842C23.5685 6.83775 18.7307 2 12.7843 2V2ZM12.7843 22.0059C7.69939 22.0059 3.56251 17.8691 3.56251 12.7842C3.56251 7.69932 7.69939 3.56251 12.7843 3.56251C17.8691 3.56251 22.006 7.69932 22.006 12.7842C22.0059 17.8691 17.8691 22.0059 12.7843 22.0059Z" fill="black"/>
<path d="M31.2159 20.4318C25.2695 20.4318 20.4316 25.2696 20.4316 31.216C20.4316 37.1624 25.2695 42.0002 31.2159 42.0002C37.1623 42.0002 42.0002 37.1624 42.0002 31.216C42.0002 25.2696 37.1624 20.4318 31.2159 20.4318ZM31.2159 40.4377C26.131 40.4377 21.9941 36.3009 21.9941 31.216C21.9941 26.1311 26.131 21.9943 31.2159 21.9943C36.3008 21.9943 40.4376 26.1311 40.4376 31.216C40.4376 36.3009 36.3008 40.4377 31.2159 40.4377Z" fill="black"/>
<path d="M32.4911 30.4227C32.3286 30.3653 32.163 30.3056 31.9972 30.2439V27.1741C32.413 27.3116 32.6862 27.5059 32.6995 27.5155C33.0431 27.7725 33.5304 27.7041 33.7899 27.3616C34.0505 27.0177 33.9829 26.5276 33.639 26.267C33.5974 26.2356 32.9511 25.7562 31.9971 25.5591V24.9108C31.9971 24.4794 31.6474 24.1295 31.2159 24.1295C30.7844 24.1295 30.4346 24.4794 30.4346 24.9108V25.5537C30.3309 25.5753 30.226 25.601 30.1199 25.6329C29.0953 25.9407 28.3296 26.8162 28.1216 27.9175C27.9313 28.9254 28.2559 29.8988 28.9685 30.4578C29.3402 30.7493 29.8018 31.0156 30.4346 31.2965V35.2885C29.9066 35.246 29.5658 35.1136 28.9891 34.7364C28.628 34.5002 28.1438 34.6013 27.9076 34.9624C27.6714 35.3235 27.7726 35.8077 28.1337 36.0439C29.0318 36.6315 29.6462 36.8092 30.4346 36.8553V37.521C30.4346 37.9524 30.7844 38.3022 31.2159 38.3022C31.6474 38.3022 31.9971 37.9524 31.9971 37.521V36.7666C33.46 36.4081 34.3982 35.1642 34.6044 33.9375C34.8713 32.3504 34.0417 30.9708 32.4911 30.4227ZM29.933 29.2284C29.6851 29.0339 29.5768 28.6331 29.6572 28.2074C29.7284 27.8305 29.97 27.381 30.4348 27.1796V29.5552C30.2469 29.4501 30.0768 29.3413 29.933 29.2284ZM33.0636 33.6784C32.97 34.2353 32.6083 34.8242 31.9972 35.1174V31.9062C33.1885 32.3432 33.1152 33.3716 33.0636 33.6784Z" fill="black"/>
<path d="M26.6094 5.6493C32.5204 5.6493 37.4243 10.0402 38.2329 15.7314C37.9269 15.4409 37.4434 15.445 37.1432 15.7451C36.8381 16.0502 36.8381 16.5449 37.1432 16.85L38.5795 18.2864C38.7321 18.4389 38.932 18.5152 39.1319 18.5152C39.3319 18.5152 39.5319 18.4389 39.6844 18.2864L41.1207 16.85C41.4258 16.545 41.4258 16.0503 41.1207 15.7451C40.8156 15.4401 40.3209 15.4401 40.0158 15.7451L39.8324 15.9285C39.1021 9.27814 33.451 4.08679 26.6094 4.08679C26.1779 4.08679 25.8281 4.43664 25.8281 4.86804C25.8281 5.29945 26.1779 5.6493 26.6094 5.6493Z" fill="black"/>
<path d="M17.3909 38.3508C11.4799 38.3508 6.57594 33.9598 5.76734 28.2686C5.91789 28.4116 6.1111 28.4837 6.30461 28.4837C6.50453 28.4837 6.70454 28.4074 6.85704 28.2549C7.16211 27.9498 7.16211 27.4551 6.85704 27.1499L5.4207 25.7136C5.11562 25.4086 4.62093 25.4086 4.31578 25.7136L2.87944 27.1499C2.57436 27.455 2.57436 27.9497 2.87944 28.2549C3.18452 28.5599 3.67921 28.5599 3.98437 28.2549L4.16773 28.0715C4.8982 34.7219 10.5493 39.9133 17.3909 39.9133C17.8224 39.9133 18.1722 39.5634 18.1722 39.132C18.1722 38.7006 17.8224 38.3508 17.3909 38.3508Z" fill="black"/>
</svg>
