<svg width="45" height="45" viewBox="0 0 45 45" fill="none" xmlns="http://www.w3.org/2000/svg">
<path d="M7.65661 4.88395C10.8667 3.69229 14.516 3.71284 17.726 4.90108C19.3514 5.54485 21.1557 6.73994 21.301 8.6781C21.3619 10.8012 21.3247 12.9277 21.3146 15.0542C24.4638 14.746 27.907 14.9651 30.5798 16.8554C31.7489 17.6635 32.3301 19.0024 32.4112 20.4029C35.1144 20.4475 38.0339 21.0364 40.0478 23.002C40.7844 23.7006 41.0446 24.7484 40.9939 25.7449C40.9635 29.2959 41.0108 32.8469 40.9702 36.3979C40.8891 37.9662 39.5409 39.0278 38.2738 39.6989C35.0806 41.3426 31.3164 41.2467 27.9104 40.4146C24.6699 41.2091 21.2335 41.1406 18.1011 39.9352C14.5396 41.1166 10.5152 41.3358 7.03487 39.7298C5.47039 39.0175 3.87888 37.6067 4.00728 35.7062C4.01404 26.8064 4.00052 17.9066 4.01742 9.00683C3.93632 6.88033 5.92994 5.56882 7.65661 4.88395ZM10.5085 5.79825C8.93725 6.10986 7.23085 6.55845 6.10227 7.78093C5.37578 8.57195 5.68665 9.86291 6.54492 10.4245C8.4946 11.8387 11.0187 12.2086 13.3671 12.1298C15.4722 11.938 17.8545 11.5477 19.3209 9.85263C20.1454 8.84931 19.3108 7.50013 18.3343 6.99676C15.9656 5.68525 13.1441 5.4113 10.5085 5.79825ZM5.69003 11.8387C5.80829 13.1879 5.22372 14.9891 6.59222 15.8657C9.03186 17.595 12.2419 17.8073 15.1073 17.3587C16.2731 17.256 17.1922 16.4581 18.2194 15.9822C18.7634 15.7151 19.4595 15.4411 19.5777 14.7563C19.7467 13.7735 19.6419 12.7702 19.6115 11.784C18.3647 12.7907 16.807 13.2838 15.256 13.5577C12.0088 14.0132 8.47771 13.7426 5.69003 11.8387ZM21.2841 16.7423C19.5575 17.1396 17.3104 17.6601 16.6448 19.5503C16.5265 20.896 17.8477 21.7042 18.9019 22.1767C21.9802 23.3924 25.5552 23.4026 28.5896 22.0363C29.4377 21.5878 30.5156 21.0125 30.5865 19.9201C30.5899 18.7148 29.4951 17.9614 28.5254 17.5231C26.258 16.5403 23.7035 16.3759 21.2841 16.7423ZM5.69341 17.2492C5.81167 18.6018 5.22035 20.4303 6.5956 21.307C8.9947 23.0362 12.1237 23.1321 14.9485 22.8445C14.962 21.5775 14.9586 20.3071 14.9823 19.0401C11.8195 19.3893 8.3831 19.1428 5.69341 17.2492ZM32.222 22.0706C32.2152 24.2073 32.3132 26.3407 32.3267 28.474C34.5873 28.5186 37.0472 28.0837 38.7773 26.5085C39.5815 25.7997 39.4125 24.4573 38.5779 23.8547C36.7972 22.4438 34.4319 22.0261 32.222 22.0706ZM5.68665 22.7006C5.82519 23.995 5.23048 25.7209 6.45368 26.6283C8.85616 28.474 12.0595 28.5562 14.9384 28.2857C14.9722 27.0187 14.962 25.7517 14.962 24.4847C11.7959 24.81 8.40337 24.5361 5.68665 22.7006ZM16.6211 22.7657C16.7225 24.0978 16.219 25.8613 17.503 26.7687C19.7974 28.4569 22.8148 28.635 25.5451 28.3473C27.2785 28.0905 29.1674 27.5529 30.323 26.1318C30.8366 25.1079 30.5899 23.8992 30.6575 22.8C29.3093 23.5533 27.8901 24.2245 26.3527 24.4505C23.0581 24.9573 19.4662 24.6696 16.6211 22.7657ZM5.67989 28.159C5.7914 29.45 5.28117 31.1142 6.45706 32.0456C8.87305 33.8536 12.0493 33.9906 14.935 33.7304C14.9722 32.4599 14.962 31.1895 14.962 29.9225C11.7858 30.241 8.4304 29.9328 5.67989 28.159ZM16.6312 28.1967C16.7225 29.4568 16.246 31.0491 17.3104 32.0114C18.8107 33.3297 20.8753 33.7338 22.8013 33.8742C25.2038 33.9769 27.8056 33.6345 29.7857 32.1449C30.9954 31.2203 30.5697 29.5287 30.6643 28.2138C26.4675 30.7341 20.8043 30.8094 16.6312 28.1967ZM32.3943 30.1246C32.2051 31.3881 32.2051 32.6688 32.3098 33.9427C34.6853 33.8742 37.4493 33.5146 39.0712 31.5628C39.5544 30.5355 39.2165 29.313 39.2672 28.2104C37.3074 29.6794 34.79 30.152 32.3943 30.1246ZM5.67989 33.5626C5.74409 34.9563 5.28117 36.778 6.70035 37.6512C9.45762 39.4661 13.009 39.5551 16.1345 38.8497C15.4925 37.7813 14.7255 36.6992 14.9485 35.374C11.779 35.6446 8.41013 35.3672 5.67989 33.5626ZM16.6177 33.6687C16.7022 34.9974 16.2427 36.7506 17.5368 37.6341C19.8143 39.2504 22.7878 39.5517 25.4842 39.199C27.1906 38.884 29.1201 38.473 30.2791 37.0519C30.9413 36.3123 30.6643 35.0147 30.6034 33.6927C26.3763 36.1479 20.8314 36.1753 16.6177 33.6687ZM32.4112 35.5658C32.3639 37.0896 31.5462 38.4319 30.2892 39.2435C33.0904 39.5654 36.2227 39.3565 38.5509 37.5793C39.7943 36.6753 39.1794 34.9597 39.2672 33.6619C37.277 35.0727 34.8035 35.5658 32.4112 35.5658Z" fill="black"/>
</svg>
